<?xml version="1.0" encoding="UTF-8" standalone="no"?><!DOCTYPE svg PUBLIC "-//W3C//DTD SVG 1.1//EN" "http://www.w3.org/Graphics/SVG/1.1/DTD/svg11.dtd"><svg width="100%" height="100%" viewBox="0 0 4270 2400" version="1.1" xmlns="http://www.w3.org/2000/svg" xmlns:xlink="http://www.w3.org/1999/xlink" xml:space="preserve" xmlns:serif="http://www.serif.com/" style="fill-rule:evenodd;clip-rule:evenodd;stroke-linecap:round;stroke-linejoin:round;stroke-miterlimit:1.5;"><rect x="-37.5" y="-25" width="4332.5" height="2445" style="fill:#f37e5d;"/><path d="M3621.942,636.882l52.239,-9.141l-36.463,33.659l22.027,64.341l-43.733,-38.649l-43.803,38.892l5.773,-55.208l-48.417,-28.497l59.814,-6.878l25.841,-53.336l6.721,54.816Z" style="fill:none;stroke:#f2f2f2;stroke-width:6.25px;"/><path d="M3805.926,1222.452l52.841,4.512l-43.854,23.223l4.853,67.834l-32.404,-48.541l-52.287,26.407l19.69,-51.9l-39.527,-39.923l59.585,8.636l38.613,-44.961l-7.51,54.714Z" style="fill:none;stroke:#f2f2f2;stroke-width:6.25px;"/><path d="M3675.66,2088.529l49.564,-18.866l-29.431,39.954l33.81,59.008l-50.259,-29.67l-35.648,46.481l-4.783,-55.303l-52.936,-18.815l57.43,-18.077l15.277,-57.264l16.977,52.553Z" style="fill:none;stroke:#f2f2f2;stroke-width:6.25px;"/><path d="M4270.948,1554.385l56.131,2.434l-46.238,28.925l6.022,77.587l-35.01,-54.019l-55.146,33.016l20.227,-60.577l-42.458,-43.76l63.341,6.817l40.397,-53.597l-7.266,63.174Z" style="fill:none;stroke:#f2f2f2;stroke-width:6.25px;"/><path d="M2422.5,95l52.5,-7.5l-37.5,32.5l20,65l-42.5,-40l-45,37.5l7.5,-55l-47.5,-30l60,-5l27.5,-52.5l5,55Z" style="fill:none;stroke:#f2f2f2;stroke-width:6.25px;"/><path d="M2422.5,95l52.5,-7.5l-37.5,32.5l20,65l-42.5,-40l-45,37.5l7.5,-55l-47.5,-30l60,-5l27.5,-52.5l5,55Z" style="fill:none;stroke:#f2f2f2;stroke-width:6.25px;"/><path d="M3020.095,308.013l57.801,-20.085l-35.403,43.236l36.728,64.573l-56.778,-32.777l-42.809,50.287l-3.432,-60.269l-60.27,-20.981l66.832,-19.153l19.748,-62.218l17.581,57.387Z" style="fill:none;stroke:#f2f2f2;stroke-width:6.25px;"/><path d="M3869.088,267.842l61.19,-0.348l-47.466,29.491l13.913,72.973l-43.155,-49.353l-56.752,33.773l16.21,-58.149l-50.268,-39.316l69.437,3.45l38.778,-52.51l-1.888,59.99Z" style="fill:none;stroke:#f2f2f2;stroke-width:6.25px;"/><path d="M2504.887,713.988l46.311,-25.841l-23.339,43.793l41.994,53.493l-54.024,-22.083l-28.545,51.151l-12.738,-54.028l-55.102,-10.955l54.209,-26.199l6.827,-58.872l24.405,49.542Z" style="fill:none;stroke:#f2f2f2;stroke-width:6.25px;"/><path d="M2723.388,1237.055l49.891,-4.701l-36.807,28.668l16.079,61.486l-38.4,-39.156l-44.104,33.003l9.454,-50.96l-43.552,-30.05l56.864,-2.042l28.228,-47.755l2.348,51.506Z" style="fill:none;stroke:#f2f2f2;stroke-width:6.25px;"/><path d="M2479.198,1757.622l49.422,8.282l-42.94,18.243l-0.268,63.553l-27.044,-47.712l-51.106,20.557l22.236,-46.817l-34.364,-40.236l55.478,12.645l39.556,-38.894l-10.971,50.379Z" style="fill:none;stroke:#f2f2f2;stroke-width:6.25px;"/><path d="M1903.193,983.876l64.928,0.344l-50.471,29.885l14.498,75.458l-45.611,-51.421l-60.339,34.197l17.41,-59.816l-53.195,-41.146l73.664,4.357l41.337,-53.738l-2.221,61.88Z" style="fill:none;stroke:#f2f2f2;stroke-width:6.25px;"/><path d="M2998.294,1952.925l60.894,-22.531l-36.723,45.738l40.13,65.526l-60.791,-32.077l-44.442,53.247l-4.757,-62.116l-64.273,-19.79l70.484,-21.849l19.777,-64.849l19.701,58.702Z" style="fill:none;stroke:#f2f2f2;stroke-width:6.25px;"/><path d="M1240,80l52.5,-7.5l-37.5,32.5l20,65l-42.5,-40l-45,37.5l7.5,-55l-47.5,-30l60,-5l27.5,-52.5l5,55Z" style="fill:none;stroke:#f2f2f2;stroke-width:6.25px;"/><path d="M1424.062,663.718l52.525,7.321l-45.029,20.854l1.232,67.996l-29.772,-50.199l-53.62,23.583l22.427,-50.777l-37.344,-41.973l59.041,11.798l40.954,-42.84l-10.415,54.236Z" style="fill:none;stroke:#f2f2f2;stroke-width:6.25px;"/><path d="M125.092,146.597l46.534,-25.437l-23.719,43.588l41.527,53.856l-53.83,-22.553l-28.989,50.901l-12.267,-54.137l-55.005,-11.434l54.435,-25.726l7.339,-58.81l23.973,49.752Z" style="fill:none;stroke:#f2f2f2;stroke-width:6.25px;"/><path d="M347.5,672.5l52.5,-7.5l-37.5,32.5l20,65l-42.5,-40l-45,37.5l7.5,-55l-47.5,-30l60,-5l27.5,-52.5l5,55Z" style="fill:none;stroke:#f2f2f2;stroke-width:6.25px;"/><path d="M615.327,1389.323l55.785,-25.07l-31.182,47.986l42.912,65.647l-59.866,-30.761l-37.898,55.921l-9.245,-63.344l-62.214,-18.083l64.894,-24.693l13.717,-66.957l23.097,59.353Z" style="fill:none;stroke:#f2f2f2;stroke-width:6.25px;"/><path d="M937.827,2221.823l55.785,-25.07l-31.182,47.986l42.912,65.647l-59.866,-30.761l-37.898,55.921l-9.245,-63.344l-62.214,-18.083l64.894,-24.693l13.717,-66.957l23.097,59.353Z" style="fill:none;stroke:#f2f2f2;stroke-width:6.25px;"/><path d="M1789.922,2189.154l61.132,1.817l-49.011,29.544l9.925,77.798l-40.415,-53.821l-58.518,33.749l19.354,-61.019l-48.066,-43.443l69.162,6.135l41.587,-54.24l-5.15,63.481Z" style="fill:none;stroke:#f2f2f2;stroke-width:6.25px;"/><path d="M92.757,1182.837l48.381,2.529l-40.259,25.028l4.178,68.05l-29.488,-47.596l-47.996,28.551l18.239,-52.955l-36.047,-38.657l54.542,6.422l35.545,-46.695l-7.095,55.323Z" style="fill:none;stroke:#f2f2f2;stroke-width:6.25px;"/><path d="M347.672,2014.407l48.115,-5.659l-35.466,31.454l15.584,66.373l-37.087,-41.947l-42.499,36.229l9.056,-55.271l-42.045,-32.03l54.845,-2.86l27.169,-52.016l2.328,55.727Z" style="fill:none;stroke:#f2f2f2;stroke-width:6.25px;"/><path d="M1296.383,1530.951l45.998,-15.209l-28.425,37.937l28.599,61.89l-44.757,-33.642l-34.355,44.028l-2.232,-55.963l-47.622,-22.932l53.152,-13.819l16.166,-56.414l13.475,54.123Z" style="fill:none;stroke:#f2f2f2;stroke-width:6.25px;"/></svg>